<?xml version="1.0" encoding="UTF-8" standalone="no"?>
<!-- Created with Inkscape (http://www.inkscape.org/) -->

<svg
   width="649.07306mm"
   height="642.31525mm"
   viewBox="0 0 649.07308 642.31526"
   version="1.1"
   id="svg1"
   xml:space="preserve"
   sodipodi:docname="Gold_Seal_Grad.svg"
   inkscape:export-filename="Gold_Seal_Grad_2.svg"
   inkscape:export-xdpi="96"
   inkscape:export-ydpi="96"
   inkscape:version="1.3.2 (091e20e, 2023-11-25, custom)"
   xmlns:inkscape="http://www.inkscape.org/namespaces/inkscape"
   xmlns:sodipodi="http://sodipodi.sourceforge.net/DTD/sodipodi-0.dtd"
   xmlns:xlink="http://www.w3.org/1999/xlink"
   xmlns="http://www.w3.org/2000/svg"
   xmlns:svg="http://www.w3.org/2000/svg"><sodipodi:namedview
     id="namedview1"
     pagecolor="#505050"
     bordercolor="#eeeeee"
     borderopacity="1"
     inkscape:showpageshadow="0"
     inkscape:pageopacity="0"
     inkscape:pagecheckerboard="0"
     inkscape:deskcolor="#505050"
     inkscape:document-units="mm"
     inkscape:zoom="0.36146818"
     inkscape:cx="1089.9991"
     inkscape:cy="1590.7348"
     inkscape:window-width="1920"
     inkscape:window-height="1051"
     inkscape:window-x="-9"
     inkscape:window-y="-9"
     inkscape:window-maximized="1"
     inkscape:current-layer="layer1" /><defs
     id="defs1"><linearGradient
       id="linearGradient88"><stop
         style="stop-color:#363300;stop-opacity:1;"
         offset="0"
         id="stop88" /><stop
         style="stop-color:#beb446;stop-opacity:1;"
         offset="0.48775893"
         id="stop90" /><stop
         style="stop-color:#363300;stop-opacity:1;"
         offset="1"
         id="stop89" /></linearGradient><linearGradient
       id="linearGradient79"><stop
         style="stop-color:#363300;stop-opacity:1;"
         offset="0"
         id="stop84" /><stop
         style="stop-color:#403c05;stop-opacity:1;"
         offset="0.24670433"
         id="stop85" /><stop
         style="stop-color:#beb446;stop-opacity:1;"
         offset="0.49905837"
         id="stop81" /><stop
         style="stop-color:#4b470b;stop-opacity:1;"
         offset="0.91902071"
         id="stop86" /><stop
         style="stop-color:#363300;stop-opacity:1;"
         offset="1"
         id="stop83" /></linearGradient><linearGradient
       id="linearGradient75"><stop
         style="stop-color:#beb446;stop-opacity:1;"
         offset="0"
         id="stop76" /><stop
         style="stop-color:#504c0d;stop-opacity:1;"
         offset="0.65913373"
         id="stop79" /><stop
         style="stop-color:#363300;stop-opacity:1;"
         offset="1"
         id="stop77" /></linearGradient><linearGradient
       id="linearGradient71"><stop
         style="stop-color:#363300;stop-opacity:1;"
         offset="0"
         id="stop72" /><stop
         style="stop-color:#534e0f;stop-opacity:1;"
         offset="0.66101694"
         id="stop75" /><stop
         style="stop-color:#beb446;stop-opacity:1;"
         offset="1"
         id="stop74" /></linearGradient><linearGradient
       id="linearGradient1"><stop
         style="stop-color:#363300;stop-opacity:1;"
         offset="0"
         id="stop1" /><stop
         style="stop-color:#575311;stop-opacity:1;"
         offset="0.2"
         id="stop63" /><stop
         style="stop-color:#9a9233;stop-opacity:1;"
         offset="0.40000001"
         id="stop64" /><stop
         style="stop-color:#beb446;stop-opacity:1;"
         offset="0.5"
         id="stop3" /><stop
         style="stop-color:#878029;stop-opacity:1;"
         offset="0.60000002"
         id="stop62" /><stop
         style="stop-color:#484409;stop-opacity:1;"
         offset="0.80000001"
         id="stop65" /><stop
         style="stop-color:#363300;stop-opacity:1;"
         offset="1"
         id="stop2" /></linearGradient><linearGradient
       xlink:href="#linearGradient1"
       id="linearGradient2"
       x1="73.459312"
       y1="133.38356"
       x2="160.05113"
       y2="227.59744"
       gradientUnits="userSpaceOnUse"
       gradientTransform="matrix(4.7997295,0,0,4.7997295,-435.59246,-690.9167)" /><linearGradient
       xlink:href="#linearGradient71"
       id="linearGradient72"
       x1="91.536697"
       y1="179.5816"
       x2="109.99168"
       y2="179.5816"
       gradientUnits="userSpaceOnUse" /><linearGradient
       xlink:href="#linearGradient75"
       id="linearGradient77"
       x1="110.24314"
       y1="179.5816"
       x2="137.92863"
       y2="179.5816"
       gradientUnits="userSpaceOnUse" /><linearGradient
       xlink:href="#linearGradient79"
       id="linearGradient81"
       x1="93.781509"
       y1="179.77988"
       x2="127.45306"
       y2="179.77988"
       gradientUnits="userSpaceOnUse" /><linearGradient
       xlink:href="#linearGradient88"
       id="linearGradient89"
       x1="68.222771"
       y1="133.9447"
       x2="161.80099"
       y2="228.9733"
       gradientUnits="userSpaceOnUse"
       gradientTransform="matrix(4.7997295,0,0,4.7997295,-435.59246,-690.9167)" /><linearGradient
       xlink:href="#linearGradient88"
       id="linearGradient94"
       x1="182.36081"
       y1="172.56549"
       x2="182.52258"
       y2="166.45496"
       gradientUnits="userSpaceOnUse"
       gradientTransform="matrix(4.7997295,0,0,4.7997298,-468.31867,-642.63536)" /><linearGradient
       xlink:href="#linearGradient88"
       id="linearGradient96"
       x1="64.404961"
       y1="172.12845"
       x2="64.40387"
       y2="166.30498"
       gradientUnits="userSpaceOnUse"
       gradientTransform="matrix(4.7997295,0,0,4.7997298,-468.31867,-642.63536)" /><linearGradient
       id="linearGradient52"><stop
         style="stop-color:#363300;stop-opacity:1;"
         offset="0"
         id="stop48" /><stop
         style="stop-color:#908910;stop-opacity:1;"
         offset="0.38159484"
         id="stop49" /><stop
         style="stop-color:#beb419;stop-opacity:1;"
         offset="0.5"
         id="stop50" /><stop
         style="stop-color:#9b9319;stop-opacity:1;"
         offset="0.61289877"
         id="stop51" /><stop
         style="stop-color:#363319;stop-opacity:1;"
         offset="1"
         id="stop52" /></linearGradient><linearGradient
       id="linearGradient47"><stop
         style="stop-color:#363300;stop-opacity:1;"
         offset="0"
         id="stop43" /><stop
         style="stop-color:#908910;stop-opacity:1;"
         offset="0.38186535"
         id="stop44" /><stop
         style="stop-color:#beb419;stop-opacity:1;"
         offset="0.5"
         id="stop45" /><stop
         style="stop-color:#9b9319;stop-opacity:1;"
         offset="0.5967105"
         id="stop46" /><stop
         style="stop-color:#363319;stop-opacity:1;"
         offset="1"
         id="stop47" /></linearGradient><linearGradient
       id="linearGradient42"><stop
         style="stop-color:#363300;stop-opacity:1;"
         offset="0"
         id="stop38" /><stop
         style="stop-color:#908910;stop-opacity:1;"
         offset="0.38981068"
         id="stop39" /><stop
         style="stop-color:#beb419;stop-opacity:1;"
         offset="0.5"
         id="stop40" /><stop
         style="stop-color:#9b9319;stop-opacity:1;"
         offset="0.6046558"
         id="stop41" /><stop
         style="stop-color:#363319;stop-opacity:1;"
         offset="1"
         id="stop42" /></linearGradient><linearGradient
       id="linearGradient37"><stop
         style="stop-color:#363300;stop-opacity:1;"
         offset="0"
         id="stop33" /><stop
         style="stop-color:#908910;stop-opacity:1;"
         offset="0.30241188"
         id="stop34" /><stop
         style="stop-color:#beb419;stop-opacity:1;"
         offset="0.5"
         id="stop35" /><stop
         style="stop-color:#9b9319;stop-opacity:1;"
         offset="0.70128167"
         id="stop36" /><stop
         style="stop-color:#363319;stop-opacity:1;"
         offset="1"
         id="stop37" /></linearGradient><linearGradient
       xlink:href="#linearGradient37"
       id="linearGradient23"
       x1="89.063301"
       y1="160.46928"
       x2="101.96535"
       y2="160.46928"
       gradientUnits="userSpaceOnUse" /><linearGradient
       xlink:href="#linearGradient52"
       id="linearGradient31"
       x1="94.483826"
       y1="160.62447"
       x2="96.572212"
       y2="160.62447"
       gradientUnits="userSpaceOnUse" /><linearGradient
       xlink:href="#linearGradient42"
       id="linearGradient32"
       x1="94.487381"
       y1="162.04515"
       x2="96.568657"
       y2="162.04515"
       gradientUnits="userSpaceOnUse" /><linearGradient
       xlink:href="#linearGradient47"
       id="linearGradient33"
       x1="94.487381"
       y1="163.26057"
       x2="96.568657"
       y2="163.26057"
       gradientUnits="userSpaceOnUse" /></defs><g
     id="layer1"
     transform="translate(209.89878,139.3245)"><ellipse
       id="path1"
       cx="114.63776"
       cy="181.83313"
       rx="319.87067"
       ry="316.49176"
       style="fill:none;stroke:url(#linearGradient89);stroke-width:9.33173;stroke-linejoin:round;stroke-dasharray:none;stroke-opacity:1" /><path
       id="path10"
       style="opacity:1;mix-blend-mode:normal;fill:url(#linearGradient2);fill-opacity:1;stroke:none;stroke-width:6.04881;stroke-linejoin:round;stroke-opacity:1"
       d="m 114.63874,-117.9384 c -144.964478,0.3321 -269.38149,102.225219 -296.80112,243.06978 h 81.22582 c 25.916196,-96.859023 114.310723,-164.453039 215.5753,-164.847624 101.55742,0.0432 190.37009,67.709641 216.36158,164.847624 h 81.09935 C 384.63255,-15.954127 259.85182,-117.91872 114.63874,-117.9384 Z m 9.65095,16.83649 16.12714,1.76352 c 0.1584,2.931243 0.28942,6.379129 0.39454,10.342938 l 0.38207,12.379319 5.28805,-22.057542 16.24367,1.778396 -5.24342,47.900101 -10.88861,-1.190573 3.53941,-32.338513 -7.88744,31.862284 -7.72128,-0.84576 -1.12851,-32.100447 -3.45758,31.599403 -10.88867,-1.190525 z m -54.23238,3.452594 15.688107,46.124201 -12.619929,2.296766 -2.16535,-8.40831 -4.422422,0.803667 0.818545,8.656312 -12.766273,2.324077 -2.366218,-48.549937 z m 120.21662,7.597251 17.27053,5.506346 -7.80067,48.088587 -12.22303,-3.894117 2.03633,-8.443012 -4.28352,-1.364179 -3.33854,8.026348 -12.36445,-3.94125 z m -159.42565,0.91526 3.25171,9.080465 -7.006932,2.507619 12.994447,36.289699 -11.798926,4.224003 -12.991966,-36.2897 -6.9771646,2.497683 -3.251712,-9.078017 z M 63.583674,-85.518 c 0.399818,9.285125 0.825553,16.054904 1.277352,20.308903 l 4.216563,-0.768868 C 67.475486,-71.232709 65.644295,-77.745366 63.583674,-85.518 Z m 132.548756,8.643928 c -4.00614,8.386377 -6.8077,14.562285 -8.40582,18.530557 l 4.0851,1.302167 c 1.05224,-5.391825 2.49107,-12.002156 4.32072,-19.832724 z m 37.50009,2.735799 8.28678,4.385225 c 5.34935,2.830353 8.83281,4.987158 10.44964,6.471187 1.63435,1.493292 2.64513,3.062996 3.03343,4.705175 0.3883,1.642132 0.33887,3.219467 -0.14879,4.734933 -0.47805,1.497996 -1.78455,4.265232 -3.91893,8.299213 l -7.89238,14.916696 c -2.023,3.823464 -3.56088,6.285918 -4.61591,7.388895 -1.0282,1.094722 -2.18575,1.772828 -3.47001,2.036333 -1.27495,0.245747 -2.64911,0.17231 -4.1223,-0.225587 -1.46387,-0.415176 -3.52016,-1.324677 -6.16856,-2.725911 l -13.96923,-7.39139 z m -248.018001,2.951593 23.7169046,41.947333 -10.9060087,6.168565 -9.9634799,-17.620239 -3.264114,1.847847 9.9610039,17.617744 -10.9060089,6.166117 -23.716908,-41.947333 10.906008,-6.166069 8.482725,15.001027 3.264114,-1.8454 -8.482725,-15.001028 z m 255.238241,10.196641 -14.82492,28.017799 c 1.59605,0.844464 2.74529,1.048933 3.44769,0.612637 0.71166,-0.454054 1.8203,-2.101994 3.32362,-4.943289 l 8.75557,-16.5463 c 1.02081,-1.9293 1.61328,-3.198636 1.7784,-3.80729 0.16463,-0.608654 0.0926,-1.152031 -0.21599,-1.629556 -0.29902,-0.495092 -1.05427,-1.063716 -2.26456,-1.704001 z m 36.57745,12.414022 17.48132,13.302018 -5.84117,7.674144 -24.93723,17.339983 7.43603,5.6601299 -5.83868,7.6740944 -18.38172,-13.9865553 4.23639,-5.565862 26.78014,-19.267171 -6.77382,-5.156638 z m -335.2785,8.371112 c 1.364664,0.17759 2.63174,0.720008 3.804827,1.627108 1.175569,0.879167 2.732395,2.476469 4.667978,4.789507 l 2.693637,3.217019 c 1.973826,2.358683 3.169367,4.281262 3.586559,5.769226 0.417144,1.487917 0.212149,3.068995 -0.612642,4.742373 -0.809566,1.660707 -2.262919,3.369507 -4.362902,5.126879 l -2.579542,2.160359 12.453733,14.8819459 -9.608795,8.0412261 -30.92722,-36.954414 9.678241,-8.100743 c 2.61737,-2.190309 4.799332,-3.66421 6.543107,-4.424919 1.759039,-0.773333 3.313614,-1.065636 4.663019,-0.875567 z m -3.040883,10.189201 c -0.714008,-0.04943 -1.693854,0.448776 -2.941667,1.493149 l 7.870083,9.402958 c 0.286639,-0.214068 0.528892,-0.402217 0.726736,-0.568 0.882608,-0.738582 1.311367,-1.461565 1.289769,-2.167797 -0.0192,-0.734168 -0.599956,-1.785452 -1.746152,-3.155007 l -2.542334,-3.035925 c -1.056954,-1.263001 -1.942428,-1.919939 -2.656435,-1.969378 z m 370.442103,7.907316 8.9019,8.817535 -33.91104,34.235991 -8.90191,-8.817583 z m -404.214263,11.268133 7.316972,6.282654 -5.449281,6.3446659 6.932518,5.952817 5.099558,-5.9379377 6.95732,5.970192 -5.099555,5.9403858 8.038745,6.90273 5.989996,-6.977175 7.316972,6.282702 L -71.713326,36.40502 -108.2709,5.0115237 Z M 331.70228,0.8197765 339.64924,11.378509 c -9.68796,9.203002 -17.99875,16.823149 -24.92979,22.858713 7.79783,-5.048837 14.79142,-9.454796 20.97616,-13.215193 l 7.67659,-4.695239 7.94701,10.558734 -42.33429,23.885566 -11.4368,-15.196952 z m -452.87585,21.8665595 27.162082,17.302786 c 4.066624,2.590701 6.660201,4.301804 7.778313,5.131774 1.101413,0.819314 1.900913,1.869303 2.400959,3.152511 0.510691,1.266456 0.576548,2.602221 0.198421,4.008205 -0.38417,1.378627 -1.322571,3.240346 -2.815171,5.583238 l -3.37325,5.29799 -7.103663,-4.526625 c 0.45535,-0.603951 0.773693,-1.047301 0.95493,-1.331925 0.479781,-0.753078 0.673849,-1.466318 0.582875,-2.135544 -0.09095,-0.669658 -0.382683,-1.2091 -0.875557,-1.617221 -0.492836,-0.407977 -1.508694,-1.102594 -3.048323,-2.083467 L -127.90519,33.255005 Z m 484.36855,24.396497 8.22977,16.149459 -39.67533,28.27324 -5.82386,-11.429358 7.43109,-4.491874 -2.03883,-4.003262 -8.05611,3.269095 -5.89325,-11.560821 z m -5.24835,13.430987 c -8.77962,3.04951 -15.14104,5.402097 -19.08612,7.056563 l 1.94456,3.817226 c 4.57332,-3.043701 10.28768,-6.667784 17.14156,-10.873789 z m -543.39296,81.37712 c -0.32251,3.56519 -0.58056,7.13575 -0.77387,10.71007 h 79.22915 c 0.417,-3.58171 0.92232,-7.15276 1.51548,-10.71007 z m 520.29119,0 c 0.58566,3.55746 1.08353,7.12855 1.49315,10.71007 h 79.23906 c -0.18334,-3.57413 -0.43148,-7.14474 -0.7441,-10.71007 z m -520.87904,71.76338 c 0.18523,3.35679 0.42751,6.71109 0.72674,10.0602 h 80.3577 c -0.58788,-3.34138 -1.09813,-6.69607 -1.53036,-10.0602 z m 521.7918,0 c -0.43246,3.36413 -0.94253,6.71882 -1.5304,10.0602 h 80.35526 c 0.29902,-3.34911 0.5415,-6.70341 0.72672,-10.0602 z m -517.23047,28.01775 c 28.68969,139.3471 152.385303,239.5742 296.11159,239.93216 143.72554,-0.35902 267.41981,-100.58597 296.10913,-239.93216 H 329.36578 C 302.34348,336.98755 214.68938,402.9994 114.63874,403.38213 14.588293,402.99958 -73.065837,336.98755 -100.08829,241.67207 Z m 79.41022,50.16717 2.391032,4.54894 2.39352,4.55139 -10.972972,5.76678 c -6.03412,3.17185 -10.8607,5.79231 -10.72743,5.82381 0.133,0.0336 5.33041,-1.6357 11.55089,-3.70563 6.22051,-2.06994 11.509433,-3.81704 11.751805,-3.88169 0.437592,-0.11706 0.454103,-0.0917 2.133082,3.10288 1.379304,2.62386 1.646063,3.23962 1.448511,3.34349 -0.133433,0.07 -0.647676,-0.21648 -1.14343,-0.63252 -1.215398,-1.02642 -3.519494,-2.18468 -5.193812,-2.60927 -1.705956,-0.43245 -3.263786,-0.50373 -5.005306,-0.22846 -1.30611,0.20687 -1.60456,0.35038 -11.79892,5.59316 l -10.46203,5.37984 -1.82552,-1.77346 -1.82552,-1.7734 -0.83091,0.43389 -0.8334,0.43629 -1.88505,-3.58904 -1.88504,-3.58655 16.36025,-8.59928 z m 433.94102,0 16.36271,8.60178 16.36025,8.5993 -1.88754,3.58655 -1.88504,3.58904 -0.83093,-0.43629 -0.83337,-0.4339 -1.82554,1.7734 -1.82553,1.77345 -10.45952,-5.37982 c -10.19438,-5.24255 -10.49528,-5.38631 -11.80144,-5.59317 -1.74148,-0.2755 -3.29682,-0.20447 -5.0028,0.22847 -1.67429,0.42477 -3.98089,1.58285 -5.19628,2.60927 -0.49577,0.41614 -1.00752,0.70259 -1.14094,0.63251 -0.19775,-0.10363 0.0691,-0.71962 1.44851,-3.34349 1.67899,-3.19455 1.6955,-3.22 2.1331,-3.10287 0.24238,0.0647 5.5288,1.81174 11.7493,3.88167 6.2205,2.06993 11.42038,3.73923 11.55338,3.70563 0.13344,-0.0336 -4.69582,-2.65199 -10.72994,-5.82379 l -10.97046,-5.76678 2.39105,-4.55139 z m -432.98858,16.1916 c 3.518541,0.061 6.91181,1.70976 9.698092,4.787 1.250819,1.38133 2.941894,3.96267 3.4799,5.31537 v 0.003 c 0.143415,0.35567 0.635864,1.57719 1.096306,2.71593 l 0.838349,2.07357 -2.517534,1.32199 -2.515054,1.32204 -0.451415,-0.85575 c -0.247762,-0.47084 -0.560324,-1.43779 -0.694492,-2.14792 -0.796361,-4.20571 -2.076194,-7.63973 -3.033443,-8.13299 -1.166291,-0.60107 -3.294357,0.32733 -15.643429,6.81839 -9.79408,5.14805 -10.52513,5.5579 -10.63069,5.97758 -0.0623,0.24768 0.15272,1.59165 0.47872,2.98636 l 0.5928,2.53736 -0.74658,0.39167 -0.74658,0.39214 -4.50676,-8.57204 -4.50923,-8.57452 0.76146,-0.39934 0.75898,-0.39934 1.34434,1.35919 c 0.73902,0.74771 1.59841,1.55295 1.90985,1.78833 l 0.56303,0.4291 9.75514,-5.12683 c 8.0644,-4.23927 10.00219,-5.20046 11.17636,-5.53611 1.18254,-0.33838 2.36906,-0.49408 3.54191,-0.47373 z m 432.03862,0 c 1.1728,-0.0192 2.35935,0.13535 3.5419,0.47373 1.17416,0.3355 3.10945,1.29684 11.17387,5.5361 l 9.75511,5.12683 0.56555,-0.42909 c 0.3115,-0.23519 1.1708,-1.04063 1.90983,-1.78833 l 1.34434,-1.35919 0.75899,0.39934 0.75898,0.39933 -4.50676,8.57453 -4.50675,8.57203 -0.7466,-0.39214 -0.74905,-0.39166 0.59282,-2.53738 c 0.3259,-1.39469 0.54093,-2.73866 0.47854,-2.98634 -0.10565,-0.41949 -0.83429,-0.82954 -10.62819,-5.97758 -12.34913,-6.49091 -14.47713,-7.41947 -15.64348,-6.8184 -0.9572,0.49327 -2.23955,3.92729 -3.03591,8.133 -0.13441,0.71011 -0.44686,1.67708 -0.69448,2.14792 l -0.44878,0.85575 -2.51754,-1.32204 -2.51507,-1.32199 0.83837,-2.07358 c 0.46078,-1.13965 0.95082,-2.36372 1.09381,-2.71842 l 0.003,0.003 c 0.53719,-1.35218 2.22602,-3.93593 3.4774,-5.31786 2.78629,-3.07725 6.18205,-4.72606 9.7006,-4.78701 z m -427.167252,6.52077 c 0.02976,0.003 0.04128,0.0144 0.03455,0.0336 -0.02064,0.0652 -0.849538,0.74746 -1.842885,1.51546 -0.993342,0.76796 -2.627493,2.03236 -3.631203,2.8102 -2.31583,1.79472 -2.62727,2.03426 -6.28267,4.8317 -1.6643,1.27365 -3.06399,2.42338 -3.11033,2.55719 -0.0494,0.14256 3.51815,-1.64932 8.61418,-4.32816 6.858365,-3.60531 8.719067,-4.52373 8.810127,-4.35047 0.0635,0.12095 0.387722,1.43349 0.719297,2.91684 0.331373,1.48351 0.867479,3.28388 1.193035,4.00327 l 0.5928,1.30961 2.725882,-1.43363 2.725882,-1.43364 0.367082,0.70191 0.36958,0.69947 -16.360245,8.5993 -16.36273,8.60178 -2.01651,-3.84204 -2.01899,-3.83954 0.79619,-0.48612 c 0.72797,-0.44494 0.78571,-0.53857 0.65481,-1.08143 -0.38158,-1.58314 -1.08009,-4.95236 -1.06655,-5.1467 0.0211,-0.29759 19.09481,-10.3138 21.697916,-11.3946 2.075201,-0.86142 3.180761,-1.26685 3.39061,-1.24515 z m 422.295852,0 c 0.20974,-0.024 1.31541,0.38349 3.39063,1.24514 2.60308,1.08081 21.67433,11.09702 21.69544,11.39461 0.0144,0.19439 -0.68251,3.56356 -1.0641,5.1467 -0.13103,0.54285 -0.0758,0.63649 0.65234,1.08143 l 0.79867,0.48611 -2.01901,3.83955 -2.01895,3.84204 -16.36026,-8.60179 -16.36027,-8.59929 0.36719,-0.69947 0.36958,-0.70191 2.7259,1.43363 2.72586,1.43363 0.59032,-1.3096 c 0.32543,-0.71939 0.86415,-2.51976 1.19551,-4.00327 0.33167,-1.48335 0.65335,-2.79589 0.71684,-2.91684 0.0912,-0.17327 1.95422,0.74516 8.8126,4.35047 5.09602,2.67884 8.66107,4.47072 8.61172,4.32816 -0.0481,-0.13391 -1.44605,-1.28355 -3.11037,-2.5572 -3.65537,-2.79743 -3.96457,-3.03697 -6.28015,-4.83169 -1.00372,-0.77784 -2.63789,-2.04224 -3.63124,-2.8102 -0.99334,-0.768 -1.82222,-1.45019 -1.84286,-1.51546 -0.005,-0.0192 0.005,-0.0336 0.0336,-0.0336 z m -351.375805,56.17943 c 1.65066,0.11092 3.336273,0.78501 5.057393,2.02396 1.543305,1.11094 2.663658,2.34515 3.358366,3.70064 0.671622,1.35957 0.916528,2.78985 0.734177,4.28851 -0.195781,1.48902 -0.84577,2.9967 -1.947059,4.52662 l -1.131032,1.57249 -5.000339,-3.53941 1.131027,-1.57004 c 0.531326,-0.73811 0.744333,-1.47362 0.637448,-2.20256 -0.116538,-0.71549 -0.544232,-1.33883 -1.282335,-1.87016 -0.724653,-0.52163 -1.432023,-0.71376 -2.120678,-0.57789 -0.702076,0.12623 -1.313782,0.55269 -1.835446,1.27736 l -1.840403,2.55475 c -0.434712,0.6039 -0.615719,1.23896 -0.543191,1.90242 0.04944,0.66716 0.254002,1.37353 0.612643,2.12066 0.348988,0.76057 0.745163,1.5554 1.188077,2.38359 0.416088,0.80886 0.815531,1.66835 1.200479,2.57708 0.371547,0.89903 0.630579,1.83978 0.778824,2.82262 0.125176,0.98653 0.0588,2.02856 -0.200917,3.1252 -0.273105,1.08694 -0.839247,2.22597 -1.699027,3.42039 l -1.086386,1.51051 c -1.622923,2.25454 -3.515115,3.55166 -5.674989,3.89163 -2.173327,0.33022 -4.413447,-0.33503 -6.721695,-1.99668 -2.241114,-1.61329 -3.53823,-3.5054 -3.891634,-5.67497 -0.353406,-2.16958 0.28995,-4.39564 1.932174,-6.67705 l 1.188081,-1.64943 5.015223,3.5196 -1.202961,1.66925 c -0.540982,0.75155 -0.766833,1.47659 -0.677126,2.17279 0.06662,0.69989 0.444167,1.29559 1.128546,1.78828 0.724682,0.52169 1.42801,0.73186 2.110762,0.63251 0.659675,-0.0955 1.230886,-0.47757 1.713907,-1.14838 l 1.406345,-1.95205 c 0.492682,-0.68439 0.69645,-1.39298 0.612642,-2.12561 -0.10689,-0.72894 -0.361276,-1.49511 -0.763939,-2.29432 -0.425736,-0.79546 -0.862603,-1.6464 -1.307135,-2.55724 -0.398905,-0.77613 -0.771796,-1.57585 -1.118629,-2.39598 -0.360268,-0.82984 -0.600711,-1.69551 -0.724256,-2.5994 -0.136984,-0.91352 -0.07526,-1.87807 0.186038,-2.89207 0.247906,-1.02364 0.791629,-2.11889 1.632057,-3.28642 l 1.753595,-2.43567 c 1.642242,-2.28141 3.559269,-3.60143 5.751881,-3.95863 0.542394,-0.0883 1.089308,-0.1138 1.639497,-0.0768 z m 17.669864,11.11436 8.55961611,4.91603 0.002509,-0.003 5.33270559,3.06324 -17.9551007,31.27695 -2.366234,-1.35923 -11.528566,-6.61998 2.986315,-5.20622 8.562094,4.91597 4.5563637,-7.93702 -7.4856297,-4.29839 2.976394,-5.18391 7.4856292,4.2984 4.4472328,-7.74359 -8.562099,-4.91598 z m 235.450201,7.3517 14.02375,26.70325 5.26823,-2.76805 2.74573,5.22603 -15.98573,8.39593 -2.74569,-5.22604 5.27067,-2.76805 -14.0238,-26.70075 z m -214.627837,4.06777 5.553455,2.64403 -15.499574,32.56424 -5.5534552,-2.64403 z m 197.766577,4.35297 13.5649,33.415 -5.69977,2.31413 -9.14747,3.71304 -2.25712,-5.56337 9.14746,-3.71302 -3.4427,-8.48027 -7.99903,3.24673 -2.2472,-5.53855 7.9966,-3.24678 -3.35837,-8.2719 -9.14497,3.71307 -2.25962,-5.56336 9.14747,-3.71308 0.95496,-0.38686 2.21737,-0.90038 z m -180.905299,3.403 c 1.168057,0.0144 2.412906,0.27167 3.735375,0.77137 1.778761,0.67235 3.178884,1.57206 4.201678,2.70109 1.022765,1.12904 1.644003,2.43481 1.862727,3.91395 0.197413,1.48877 -0.02976,3.09932 -0.684571,4.8317 l -6.612558,17.49376 c -0.689851,1.82514 -1.605011,3.26453 -2.745724,4.31827 -1.156183,1.04787 -2.490671,1.67553 -4.000772,1.88255 -1.515946,0.22271 -3.145862,0.004 -4.893689,-0.65728 -1.732356,-0.65478 -3.084791,-1.54685 -4.055339,-2.67384 -0.970515,-1.12663 -1.54118,-2.44719 -1.711426,-3.96107 -0.176101,-1.49837 0.07181,-3.13724 0.744098,-4.91597 l 0.982211,-2.59694 5.915586,2.2348 -0.982212,2.59938 c -0.309822,0.81975 -0.341453,1.54096 -0.09921,2.16286 0.242242,0.62186 0.710307,1.06386 1.406345,1.32694 0.773375,0.29229 1.483274,0.25966 2.130605,-0.097 0.64145,-0.34077 1.130158,-0.9513 1.463394,-1.83297 l 6.610072,-17.49376 c 0.274785,-0.72697 0.263122,-1.39561 -0.03744,-2.00407 -0.315774,-0.61432 -0.884211,-1.07669 -1.703986,-1.38651 -0.850713,-0.32158 -1.600657,-0.34894 -2.249656,-0.0821 -0.654881,0.2827 -1.13459,0.82776 -1.438596,1.63205 l -1.743669,4.61591 2.830055,1.07149 -2.088434,5.52122 -8.467847,-3.2021 3.814749,-10.09249 c 0.672313,-1.77844 1.581391,-3.17477 2.725881,-4.19174 1.123147,-1.00731 2.438614,-1.61601 3.948681,-1.82304 0.372219,-0.0494 0.754081,-0.0715 1.143434,-0.0668 z m 153.527399,6.5034 c 0.79589,-0.0481 1.55348,0.0144 2.272,0.17374 1.4416,0.33839 2.68785,1.06857 3.73784,2.19262 1.03415,1.12862 1.8212,2.6242 2.36127,4.48194 l 5.15164,17.7195 c 0.54469,1.87357 0.67927,3.55617 0.40655,5.04744 -0.28366,1.51177 -0.94425,2.78932 -1.98426,3.83211 -1.0354,1.05867 -2.4278,1.84113 -4.17442,2.34889 -1.76246,0.51238 -3.36279,0.599 -4.80439,0.26062 -1.43699,-0.32254 -2.67397,-1.04912 -3.70807,-2.17773 -1.03416,-1.12866 -1.82404,-2.62818 -2.36872,-4.50181 l -0.80862,-2.78787 5.97765,-1.73871 0.81105,2.78788 c 0.17086,0.58749 0.40222,1.06165 0.69697,1.42369 0.2995,0.37775 0.65789,0.63477 1.07643,0.77142 0.41854,0.13678 0.88339,0.13295 1.3915,-0.0144 0.71448,-0.20783 1.20324,-0.62694 1.46832,-1.25508 0.26975,-0.61221 0.27599,-1.36292 0.0192,-2.25212 l -5.15166,-17.71946 c -0.2587,-0.88919 -0.66437,-1.52031 -1.22032,-1.89248 -0.55591,-0.37246 -1.19283,-0.4531 -1.90736,-0.24575 -0.76216,0.22175 -1.26906,0.63501 -1.52292,1.2426 -0.2491,0.62353 -0.24622,1.38036 0.0144,2.2695 l 0.81106,2.78543 -5.97758,1.73871 -0.81107,-2.78538 c -0.54467,-1.87362 -0.68209,-3.56514 -0.41421,-5.07231 0.26783,-1.50712 0.9191,-2.7908 1.9545,-3.84948 1.04,-1.04278 2.44167,-1.81914 4.20418,-2.33147 0.87326,-0.2539 1.70673,-0.40509 2.50262,-0.45165 z m -128.175963,1.57503 c 0.841874,0.048 1.729584,0.19007 2.666347,0.4315 1.873526,0.48251 3.401088,1.21802 4.581198,2.205 1.159951,0.99882 1.935395,2.19803 2.326525,3.59648 0.386857,1.41442 0.358539,2.98572 -0.08688,4.7151 l -4.950729,19.21511 c -0.449735,1.74542 -1.182029,3.13638 -2.200052,4.17192 -1.022102,1.05152 -2.281023,1.72573 -3.775035,2.02395 -1.510042,0.29422 -3.201275,0.19967 -5.074754,-0.28271 -1.873527,-0.48256 -3.392256,-1.21476 -4.556374,-2.19761 -1.180114,-0.98691 -1.964352,-2.18694 -2.351353,-3.60143 -0.39113,-1.39844 -0.362717,-2.97217 0.08682,-4.71754 l 4.950734,-19.21514 c 0.445415,-1.7294 1.177901,-3.12036 2.200052,-4.17189 1.017975,-1.03554 2.285679,-1.70645 3.799849,-2.01651 0.747031,-0.14927 1.541722,-0.20254 2.383594,-0.15647 z m 110.399443,3.26411 6.28765,35.51334 -6.05697,1.07153 -2.68622,-15.16723 -4.78701,0.84581 2.68617,15.16968 -6.05693,1.0715 -6.28765,-35.51085 6.05698,-1.07399 2.5944,14.65377 4.78706,-0.84581 -2.59445,-14.65377 z m -93.007383,1.04172 12.848109,1.9595 2.50018,0.38205 -5.439342,35.65226 -6.079289,-0.93014 4.548895,-29.81352 -9.268998,-1.41632 z m -17.540851,1.96444 c -0.390217,0.0384 -0.74535,0.15935 -1.061604,0.35951 -0.648491,0.39645 -1.094387,1.07557 -1.34186,2.03633 l -4.566271,17.72693 c -0.243347,0.94478 -0.178071,1.74802 0.198229,2.40841 0.360459,0.65627 1.005879,1.10265 1.934627,1.34186 0.912764,0.23518 1.69296,0.15311 2.341451,-0.24334 0.632509,-0.4003 1.071252,-1.07173 1.314599,-2.01651 l 4.563774,-17.7269 c 0.247667,-0.96076 0.191509,-1.76947 -0.16847,-2.42578 -0.376299,-0.66039 -1.019415,-1.10677 -1.932179,-1.34181 -0.464614,-0.11945 -0.89203,-0.15935 -1.282296,-0.11907 z m 85.469644,1.02191 2.29182,35.96725 -4.82674,0.30767 -9.20699,-21.61611 1.40886,22.11216 -5.59317,0.3571 -2.29182,-35.96725 4.87634,-0.31007 9.05319,20.39324 -1.32943,-20.88435 z m -35.65724,0.3595 c 1.93233,0.0955 3.57379,0.50604 4.92841,1.23522 1.33736,0.74487 2.33905,1.76466 3.00372,3.05574 0.66381,1.30759 0.95127,2.8521 0.86314,4.63573 l -0.97972,19.81784 c -0.0888,1.80019 -0.5259,3.30984 -1.3146,4.52907 -0.7895,1.23579 -1.88797,2.15037 -3.29137,2.74323 -1.41994,0.59205 -3.09534,0.84207 -5.02767,0.7466 -1.93198,-0.0955 -3.567915,-0.50935 -4.906089,-1.23771 -1.354334,-0.72917 -2.362135,-1.74566 -3.025986,-3.05324 -0.664618,-1.29109 -0.95457,-2.83809 -0.865631,-4.63823 l 0.979721,-19.81784 c 0.08832,-1.78362 0.527538,-3.29333 1.317089,-4.52907 0.788696,-1.21928 1.892971,-2.13219 3.313686,-2.74079 1.40345,-0.59286 3.07303,-0.84207 5.0053,-0.74655 z m -0.30525,6.14375 c -0.95789,-0.048 -1.70579,0.18719 -2.2447,0.70691 -0.55542,0.5189 -0.85881,1.2736 -0.90781,2.26456 l -0.90284,18.2825 c -0.0479,0.97439 0.17808,1.74797 0.6796,2.31909 0.48506,0.57031 1.20746,0.88031 2.16535,0.92764 0.94137,0.0481 1.68926,-0.19055 2.24469,-0.70935 0.53891,-0.51971 0.83237,-1.26785 0.88051,-2.24224 l 0.90532,-18.2825 c 0.0489,-0.99091 -0.16991,-1.77111 -0.65478,-2.34141 -0.50156,-0.57112 -1.22397,-0.87864 -2.16534,-0.9252 z" /><ellipse
       id="ellipse4"
       cx="-190.19576"
       cy="-100.15326"
       rx="236.20702"
       ry="233.71187"
       style="fill:none;stroke:none;stroke-width:4.71585;stroke-linejoin:round;stroke-dasharray:none;stroke-opacity:1"
       transform="rotate(-150)" /><ellipse
       id="ellipse5"
       cx="214.79097"
       cy="-8.3625937"
       rx="236.20702"
       ry="233.71187"
       style="fill:none;stroke:none;stroke-width:4.71585;stroke-linejoin:round;stroke-dasharray:none;stroke-opacity:1"
       transform="rotate(60)" /><text
       xml:space="preserve"
       style="font-style:normal;font-weight:normal;font-size:43.8739px;line-height:1.25;font-family:sans-serif;letter-spacing:0px;word-spacing:0px;fill:url(#linearGradient96);fill-opacity:1;stroke:none;stroke-width:1.09685"
       x="-209.18457"
       y="183.745"
       id="text7"
       transform="scale(0.93011982,1.0751303)"><tspan
         id="tspan7"
         style="font-style:italic;font-variant:normal;font-weight:bold;font-stretch:normal;font-family:Consolas;-inkscape-font-specification:'Consolas Bold Italic';fill:url(#linearGradient96);fill-opacity:1;stroke-width:1.09685"
         x="-209.18457"
         y="183.745">ESTD</tspan></text><text
       xml:space="preserve"
       style="font-style:normal;font-weight:normal;font-size:43.8739px;line-height:1.25;font-family:sans-serif;letter-spacing:0px;word-spacing:0px;fill:url(#linearGradient94);fill-opacity:1;stroke:none;stroke-width:1.09685"
       x="356.78479"
       y="184.85851"
       id="text8"
       transform="scale(0.93011982,1.0751303)"><tspan
         id="tspan8"
         style="font-style:italic;font-variant:normal;font-weight:bold;font-stretch:normal;font-family:Consolas;-inkscape-font-specification:'Consolas Bold Italic';fill:url(#linearGradient94);fill-opacity:1;stroke:none;stroke-width:1.09685"
         x="356.78479"
         y="184.85851">2022</tspan></text><g
       id="layer1-6"
       transform="matrix(26.534567,0,0,26.534567,-2419.7935,-4076.0861)"><path
         id="text4"
         style="font-weight:bold;font-stretch:condensed;font-size:10.5833px;line-height:1.25;font-family:'Agency FB';-inkscape-font-specification:'Agency FB Bold Condensed';letter-spacing:0px;word-spacing:0px;fill:url(#linearGradient23);stroke:none;stroke-width:0.264583"
         d="m 101.96535,156.42508 -1.20509,5.1e-4 v 5.2e-4 h -2.534731 v 1.0697 0.22169 6.79597 h 1.204061 v -7.01766 h 1.33067 v 0.7984 h 1.20509 z m -10.344069,5.1e-4 v 0.002 H 90.29578 v -0.001 h -1.205094 v 1.86913 h 1.205094 v -0.7984 h 1.325501 v 5.97742 h -1.353923 v -1.68982 h -1.20406 v 1.98954 c 0,0.49265 0.242881,0.73897 0.728637,0.73897 h 2.294434 c 0.496091,0 0.74414,-0.24632 0.74414,-0.73897 v -3.34398 -2.71146 -0.2217 -1.0697 -0.002 z m 1.462443,0 v 8.08737 h 1.16272 v -3.98942 c 0,-0.20326 0.009,-1.71153 0.01033,-2.12701 l 1.043864,1.37511 0.501261,-0.005 1.013892,-1.39474 c -0.01309,0.37241 -0.0062,1.94165 -0.0062,2.1518 v 3.98942 h 1.162719 v -8.08736 h -1.142049 l -1.333252,1.87379 -1.27124,-1.87379 z" /><path
         id="rect5"
         style="fill:url(#linearGradient31);stroke:none;stroke-width:0.152523;stroke-opacity:1;paint-order:stroke markers fill"
         d="m 95.538423,159.84949 -0.534076,0.85392 h -0.154642 l -0.364931,-0.39835 -9.46e-4,0.001 v 0.39835 0.69502 h 2.088382 v -0.69502 -0.001 -0.39724 l -9.46e-4,-0.001 -0.364773,0.39835 h -0.159057 z" /><path
         id="rect7"
         style="fill:url(#linearGradient32);stroke:none;stroke-width:0.118655;stroke-opacity:1;paint-order:stroke markers fill"
         d="m 95.527591,161.52037 -0.113962,0.11503 -0.147833,0.1482 4.89e-4,4.8e-4 -0.778905,0.78585 h 0.770957 l 0.269621,-0.27209 0.269621,0.27209 h 0.771079 l -0.779027,-0.78585 4.89e-4,-4.8e-4 -0.145632,-0.146 -0.116163,-0.11723 -3.67e-4,3.3e-4 z" /><path
         id="path8"
         style="fill:url(#linearGradient33);stroke:none;stroke-width:0.12324;stroke-opacity:1;paint-order:stroke markers fill"
         d="m 95.527591,162.69446 -0.113962,0.12409 -0.147833,0.15987 4.89e-4,5.3e-4 -0.778905,0.84776 h 0.770957 l 0.269621,-0.29353 0.269621,0.29353 h 0.771079 l -0.779027,-0.84776 4.89e-4,-5.3e-4 -0.145632,-0.1575 -0.116163,-0.12646 -3.67e-4,3.5e-4 z" /></g></g></svg>
